<mxfile host="app.diagrams.net" modified="2024-03-08T18:01:15.310Z" agent="Mozilla/5.0 (Windows NT 10.0; Win64; x64) AppleWebKit/537.36 (KHTML, like Gecko) Chrome/122.0.0.0 Safari/537.36" etag="8MlpV3s_CDAGKEZM6YRo" version="24.0.2" type="device">
  <diagram name="Page-1" id="K19pXNgJ-HJg6R9YySjM">
    <mxGraphModel dx="880" dy="426" grid="1" gridSize="10" guides="1" tooltips="1" connect="1" arrows="1" fold="1" page="1" pageScale="1" pageWidth="850" pageHeight="1100" math="0" shadow="0">
      <root>
        <mxCell id="0" />
        <mxCell id="1" parent="0" />
        <mxCell id="LxFJmqrfPIdJUtA-IVpN-5" value="SELECT DESTINATION" style="rounded=0;whiteSpace=wrap;html=1;" vertex="1" parent="1">
          <mxGeometry x="305" y="190" width="120" height="60" as="geometry" />
        </mxCell>
        <mxCell id="LxFJmqrfPIdJUtA-IVpN-9" value="IS IT WITHIN BUDGET" style="rounded=0;whiteSpace=wrap;html=1;" vertex="1" parent="1">
          <mxGeometry x="290" y="290" width="175" height="40" as="geometry" />
        </mxCell>
        <mxCell id="LxFJmqrfPIdJUtA-IVpN-10" value="CHOOSE TRAVEL DATES" style="rounded=0;whiteSpace=wrap;html=1;" vertex="1" parent="1">
          <mxGeometry x="220" y="360" width="120" height="60" as="geometry" />
        </mxCell>
        <mxCell id="LxFJmqrfPIdJUtA-IVpN-11" value="SAVE MONEY" style="rounded=0;whiteSpace=wrap;html=1;" vertex="1" parent="1">
          <mxGeometry x="420" y="360" width="120" height="60" as="geometry" />
        </mxCell>
        <mxCell id="LxFJmqrfPIdJUtA-IVpN-12" value="BOOK FLIGHT" style="rounded=0;whiteSpace=wrap;html=1;" vertex="1" parent="1">
          <mxGeometry x="220" y="460" width="120" height="60" as="geometry" />
        </mxCell>
        <mxCell id="LxFJmqrfPIdJUtA-IVpN-13" value="BOOK ACCOMADATION" style="rounded=0;whiteSpace=wrap;html=1;" vertex="1" parent="1">
          <mxGeometry x="220" y="560" width="120" height="60" as="geometry" />
        </mxCell>
        <mxCell id="LxFJmqrfPIdJUtA-IVpN-14" value="PACK BAGS" style="rounded=0;whiteSpace=wrap;html=1;" vertex="1" parent="1">
          <mxGeometry x="220" y="660" width="120" height="60" as="geometry" />
        </mxCell>
        <mxCell id="LxFJmqrfPIdJUtA-IVpN-15" value="ENJOY TRIPS" style="rounded=0;whiteSpace=wrap;html=1;" vertex="1" parent="1">
          <mxGeometry x="250" y="810" width="250" height="60" as="geometry" />
        </mxCell>
        <mxCell id="LxFJmqrfPIdJUtA-IVpN-17" value="" style="endArrow=classic;html=1;rounded=0;" edge="1" parent="1">
          <mxGeometry width="50" height="50" relative="1" as="geometry">
            <mxPoint x="364.5" y="250" as="sourcePoint" />
            <mxPoint x="364.5" y="290" as="targetPoint" />
          </mxGeometry>
        </mxCell>
        <mxCell id="LxFJmqrfPIdJUtA-IVpN-18" value="" style="endArrow=classic;html=1;rounded=0;entryX=0.118;entryY=0;entryDx=0;entryDy=0;entryPerimeter=0;" edge="1" parent="1" target="LxFJmqrfPIdJUtA-IVpN-15">
          <mxGeometry width="50" height="50" relative="1" as="geometry">
            <mxPoint x="279.5" y="720" as="sourcePoint" />
            <mxPoint x="279.5" y="760" as="targetPoint" />
          </mxGeometry>
        </mxCell>
        <mxCell id="LxFJmqrfPIdJUtA-IVpN-19" value="" style="endArrow=classic;html=1;rounded=0;" edge="1" parent="1">
          <mxGeometry width="50" height="50" relative="1" as="geometry">
            <mxPoint x="279.5" y="620" as="sourcePoint" />
            <mxPoint x="279.5" y="660" as="targetPoint" />
          </mxGeometry>
        </mxCell>
        <mxCell id="LxFJmqrfPIdJUtA-IVpN-20" value="" style="endArrow=classic;html=1;rounded=0;" edge="1" parent="1">
          <mxGeometry width="50" height="50" relative="1" as="geometry">
            <mxPoint x="279.5" y="520" as="sourcePoint" />
            <mxPoint x="279.5" y="560" as="targetPoint" />
          </mxGeometry>
        </mxCell>
        <mxCell id="LxFJmqrfPIdJUtA-IVpN-21" value="" style="endArrow=classic;html=1;rounded=0;" edge="1" parent="1">
          <mxGeometry width="50" height="50" relative="1" as="geometry">
            <mxPoint x="279.5" y="420" as="sourcePoint" />
            <mxPoint x="280" y="460" as="targetPoint" />
          </mxGeometry>
        </mxCell>
        <mxCell id="LxFJmqrfPIdJUtA-IVpN-23" value="" style="endArrow=classic;html=1;rounded=0;" edge="1" parent="1">
          <mxGeometry width="50" height="50" relative="1" as="geometry">
            <mxPoint x="316.5" y="330" as="sourcePoint" />
            <mxPoint x="316.5" y="360" as="targetPoint" />
          </mxGeometry>
        </mxCell>
        <mxCell id="LxFJmqrfPIdJUtA-IVpN-25" value="" style="endArrow=classic;html=1;rounded=0;" edge="1" parent="1">
          <mxGeometry width="50" height="50" relative="1" as="geometry">
            <mxPoint x="450" y="330" as="sourcePoint" />
            <mxPoint x="450" y="360" as="targetPoint" />
          </mxGeometry>
        </mxCell>
        <mxCell id="LxFJmqrfPIdJUtA-IVpN-29" value="" style="endArrow=classic;html=1;rounded=0;exitX=0.5;exitY=1;exitDx=0;exitDy=0;entryX=0.924;entryY=-0.017;entryDx=0;entryDy=0;entryPerimeter=0;" edge="1" parent="1" source="LxFJmqrfPIdJUtA-IVpN-11" target="LxFJmqrfPIdJUtA-IVpN-15">
          <mxGeometry width="50" height="50" relative="1" as="geometry">
            <mxPoint x="479.5" y="470" as="sourcePoint" />
            <mxPoint x="480" y="800" as="targetPoint" />
          </mxGeometry>
        </mxCell>
      </root>
    </mxGraphModel>
  </diagram>
</mxfile>
